<mxfile host="app.diagrams.net" agent="Mozilla/5.0 (Windows NT 10.0; Win64; x64; rv:143.0) Gecko/20100101 Firefox/143.0" version="28.2.7">
  <diagram name="Page-1" id="EYg3MqegUCzYYS_CXkTB">
    <mxGraphModel dx="1064" dy="605" grid="1" gridSize="10" guides="1" tooltips="1" connect="1" arrows="1" fold="1" page="1" pageScale="1" pageWidth="827" pageHeight="1169" math="0" shadow="0">
      <root>
        <mxCell id="0" />
        <mxCell id="1" parent="0" />
        <mxCell id="4wwCNLiv_q5koLoVdjaf-9" value="participant" style="shape=umlActor;verticalLabelPosition=bottom;verticalAlign=top;html=1;labelBackgroundColor=none;fillColor=#FAE5C7;strokeColor=#0F8B8D;fontColor=#143642;" vertex="1" parent="1">
          <mxGeometry x="140" y="100" width="30" height="60" as="geometry" />
        </mxCell>
        <mxCell id="4wwCNLiv_q5koLoVdjaf-10" value="formateur" style="shape=umlActor;verticalLabelPosition=bottom;verticalAlign=top;html=1;labelBackgroundColor=none;fillColor=#FAE5C7;strokeColor=#0F8B8D;fontColor=#143642;" vertex="1" parent="1">
          <mxGeometry x="140" y="210" width="30" height="60" as="geometry" />
        </mxCell>
        <mxCell id="4wwCNLiv_q5koLoVdjaf-11" value="&lt;div&gt;formateur externe&lt;/div&gt;" style="shape=umlActor;verticalLabelPosition=bottom;verticalAlign=top;html=1;labelBackgroundColor=none;fillColor=#FAE5C7;strokeColor=#0F8B8D;fontColor=#143642;" vertex="1" parent="1">
          <mxGeometry x="140" y="360" width="30" height="60" as="geometry" />
        </mxCell>
        <mxCell id="4wwCNLiv_q5koLoVdjaf-12" value="Extends" style="endArrow=block;endSize=16;endFill=0;html=1;rounded=0;exitX=0.5;exitY=0;exitDx=0;exitDy=0;exitPerimeter=0;labelBackgroundColor=none;strokeColor=#A8201A;fontColor=default;" edge="1" parent="1" source="4wwCNLiv_q5koLoVdjaf-11" target="4wwCNLiv_q5koLoVdjaf-10">
          <mxGeometry width="160" relative="1" as="geometry">
            <mxPoint x="330" y="230" as="sourcePoint" />
            <mxPoint x="490" y="230" as="targetPoint" />
          </mxGeometry>
        </mxCell>
        <mxCell id="4wwCNLiv_q5koLoVdjaf-13" value="moncompte.dawan.fr" style="shape=umlFrame;whiteSpace=wrap;html=1;pointerEvents=0;width=140;height=30;labelBackgroundColor=none;fillColor=#FAE5C7;strokeColor=#0F8B8D;fontColor=#143642;" vertex="1" parent="1">
          <mxGeometry x="250" y="70" width="280" height="370" as="geometry" />
        </mxCell>
        <mxCell id="4wwCNLiv_q5koLoVdjaf-14" value="ERP dawan" style="shape=umlFrame;whiteSpace=wrap;html=1;pointerEvents=0;width=140;height=30;labelBackgroundColor=none;fillColor=#FAE5C7;strokeColor=#0F8B8D;fontColor=#143642;" vertex="1" parent="1">
          <mxGeometry x="560" y="70" width="210" height="370" as="geometry" />
        </mxCell>
        <mxCell id="4wwCNLiv_q5koLoVdjaf-15" value="administratifs" style="shape=umlActor;verticalLabelPosition=bottom;verticalAlign=top;html=1;labelBackgroundColor=none;fillColor=#FAE5C7;strokeColor=#0F8B8D;fontColor=#143642;" vertex="1" parent="1">
          <mxGeometry x="840" y="220" width="30" height="60" as="geometry" />
        </mxCell>
        <mxCell id="4wwCNLiv_q5koLoVdjaf-16" value="s&#39;authentifier" style="ellipse;whiteSpace=wrap;html=1;labelBackgroundColor=none;fillColor=#FAE5C7;strokeColor=#0F8B8D;fontColor=#143642;" vertex="1" parent="1">
          <mxGeometry x="320" y="140" width="140" height="70" as="geometry" />
        </mxCell>
        <mxCell id="4wwCNLiv_q5koLoVdjaf-17" value="" style="endArrow=none;html=1;rounded=0;exitX=1;exitY=0.3333333333333333;exitDx=0;exitDy=0;exitPerimeter=0;labelBackgroundColor=none;strokeColor=#A8201A;fontColor=default;" edge="1" parent="1" source="4wwCNLiv_q5koLoVdjaf-9" target="4wwCNLiv_q5koLoVdjaf-16">
          <mxGeometry width="50" height="50" relative="1" as="geometry">
            <mxPoint x="390" y="310" as="sourcePoint" />
            <mxPoint x="440" y="260" as="targetPoint" />
          </mxGeometry>
        </mxCell>
        <mxCell id="4wwCNLiv_q5koLoVdjaf-18" value="" style="endArrow=none;html=1;rounded=0;exitX=1;exitY=0.3333333333333333;exitDx=0;exitDy=0;exitPerimeter=0;entryX=0;entryY=0.5;entryDx=0;entryDy=0;labelBackgroundColor=none;strokeColor=#A8201A;fontColor=default;" edge="1" parent="1" source="4wwCNLiv_q5koLoVdjaf-10" target="4wwCNLiv_q5koLoVdjaf-16">
          <mxGeometry width="50" height="50" relative="1" as="geometry">
            <mxPoint x="390" y="310" as="sourcePoint" />
            <mxPoint x="440" y="260" as="targetPoint" />
          </mxGeometry>
        </mxCell>
        <mxCell id="4wwCNLiv_q5koLoVdjaf-19" value="authentifier avec SSO" style="ellipse;whiteSpace=wrap;html=1;labelBackgroundColor=none;fillColor=#FAE5C7;strokeColor=#0F8B8D;fontColor=#143642;" vertex="1" parent="1">
          <mxGeometry x="580" y="170" width="140" height="70" as="geometry" />
        </mxCell>
        <mxCell id="4wwCNLiv_q5koLoVdjaf-21" value="&amp;lt;&amp;lt;include&amp;gt;&amp;gt;" style="html=1;verticalAlign=bottom;labelBackgroundColor=none;endArrow=open;endFill=0;dashed=1;rounded=0;exitX=1;exitY=0.5;exitDx=0;exitDy=0;entryX=0;entryY=0.5;entryDx=0;entryDy=0;strokeColor=#A8201A;fontColor=default;" edge="1" parent="1" source="4wwCNLiv_q5koLoVdjaf-16" target="4wwCNLiv_q5koLoVdjaf-19">
          <mxGeometry width="160" relative="1" as="geometry">
            <mxPoint x="330" y="290" as="sourcePoint" />
            <mxPoint x="490" y="290" as="targetPoint" />
          </mxGeometry>
        </mxCell>
        <mxCell id="4wwCNLiv_q5koLoVdjaf-22" value="include: dépendance obligatoire" style="shape=note2;boundedLbl=1;whiteSpace=wrap;html=1;size=25;verticalAlign=top;align=center;labelBackgroundColor=none;fillColor=#1ba1e2;strokeColor=#006EAF;fontColor=#ffffff;" vertex="1" parent="1">
          <mxGeometry x="450" width="190" height="60" as="geometry" />
        </mxCell>
        <mxCell id="4wwCNLiv_q5koLoVdjaf-23" value="" style="endArrow=none;dashed=1;html=1;dashPattern=1 3;strokeWidth=2;rounded=0;entryX=0;entryY=1;entryDx=0;entryDy=0;entryPerimeter=0;labelBackgroundColor=none;strokeColor=#A8201A;fontColor=default;" edge="1" parent="1" target="4wwCNLiv_q5koLoVdjaf-22">
          <mxGeometry width="50" height="50" relative="1" as="geometry">
            <mxPoint x="510" y="180" as="sourcePoint" />
            <mxPoint x="440" y="160" as="targetPoint" />
          </mxGeometry>
        </mxCell>
        <mxCell id="4wwCNLiv_q5koLoVdjaf-25" value="signer" style="ellipse;whiteSpace=wrap;html=1;labelBackgroundColor=none;fillColor=#FAE5C7;strokeColor=#0F8B8D;fontColor=#143642;" vertex="1" parent="1">
          <mxGeometry x="370" y="355" width="140" height="70" as="geometry" />
        </mxCell>
        <mxCell id="4wwCNLiv_q5koLoVdjaf-26" value="&amp;lt;&amp;lt;include&amp;gt;&amp;gt;" style="html=1;verticalAlign=bottom;labelBackgroundColor=none;endArrow=open;endFill=0;dashed=1;rounded=0;entryX=0.5;entryY=0;entryDx=0;entryDy=0;exitX=0.5;exitY=1;exitDx=0;exitDy=0;strokeColor=#A8201A;fontColor=default;" edge="1" parent="1" target="4wwCNLiv_q5koLoVdjaf-25">
          <mxGeometry width="160" relative="1" as="geometry">
            <mxPoint x="400" y="320" as="sourcePoint" />
            <mxPoint x="490" y="290" as="targetPoint" />
          </mxGeometry>
        </mxCell>
        <mxCell id="4wwCNLiv_q5koLoVdjaf-27" value="" style="endArrow=none;html=1;rounded=0;entryX=1;entryY=0.3333333333333333;entryDx=0;entryDy=0;entryPerimeter=0;exitX=0.102;exitY=0.15;exitDx=0;exitDy=0;exitPerimeter=0;labelBackgroundColor=none;strokeColor=#A8201A;fontColor=default;" edge="1" parent="1" target="4wwCNLiv_q5koLoVdjaf-9">
          <mxGeometry width="50" height="50" relative="1" as="geometry">
            <mxPoint x="344.28" y="260.5" as="sourcePoint" />
            <mxPoint x="440" y="260" as="targetPoint" />
          </mxGeometry>
        </mxCell>
        <mxCell id="4wwCNLiv_q5koLoVdjaf-28" value="visualiser les présence" style="ellipse;whiteSpace=wrap;html=1;labelBackgroundColor=none;fillColor=#FAE5C7;strokeColor=#0F8B8D;fontColor=#143642;" vertex="1" parent="1">
          <mxGeometry x="580" y="340" width="140" height="70" as="geometry" />
        </mxCell>
        <mxCell id="4wwCNLiv_q5koLoVdjaf-29" value="&amp;lt;&amp;lt;extend&amp;gt;&amp;gt;" style="html=1;verticalAlign=bottom;labelBackgroundColor=none;endArrow=open;endFill=0;dashed=1;rounded=0;entryX=0.5;entryY=0;entryDx=0;entryDy=0;exitX=1;exitY=0.5;exitDx=0;exitDy=0;strokeColor=#A8201A;fontColor=default;" edge="1" parent="1" target="4wwCNLiv_q5koLoVdjaf-28">
          <mxGeometry x="-0.0162" y="-29" width="160" relative="1" as="geometry">
            <mxPoint x="470" y="285" as="sourcePoint" />
            <mxPoint x="490" y="290" as="targetPoint" />
            <mxPoint as="offset" />
          </mxGeometry>
        </mxCell>
        <mxCell id="4wwCNLiv_q5koLoVdjaf-30" value="&lt;div&gt;extend: dépendance optionnelle (! exrends)&lt;/div&gt;" style="shape=note2;boundedLbl=1;whiteSpace=wrap;html=1;size=25;verticalAlign=top;align=center;labelBackgroundColor=none;fillColor=#1ba1e2;strokeColor=#006EAF;fontColor=#ffffff;" vertex="1" parent="1">
          <mxGeometry x="560" y="460" width="250" height="60" as="geometry" />
        </mxCell>
        <mxCell id="4wwCNLiv_q5koLoVdjaf-31" value="" style="endArrow=none;html=1;rounded=0;entryX=0;entryY=0.3333333333333333;entryDx=0;entryDy=0;entryPerimeter=0;exitX=0.65;exitY=0.031;exitDx=0;exitDy=0;exitPerimeter=0;labelBackgroundColor=none;strokeColor=#A8201A;fontColor=default;" edge="1" parent="1" source="4wwCNLiv_q5koLoVdjaf-28" target="4wwCNLiv_q5koLoVdjaf-15">
          <mxGeometry width="50" height="50" relative="1" as="geometry">
            <mxPoint x="390" y="310" as="sourcePoint" />
            <mxPoint x="440" y="260" as="targetPoint" />
          </mxGeometry>
        </mxCell>
        <mxCell id="4wwCNLiv_q5koLoVdjaf-32" value="" style="endArrow=none;dashed=1;html=1;dashPattern=1 3;strokeWidth=2;rounded=0;exitX=0.092;exitY=-0.047;exitDx=0;exitDy=0;exitPerimeter=0;labelBackgroundColor=none;strokeColor=#A8201A;fontColor=default;" edge="1" parent="1" source="4wwCNLiv_q5koLoVdjaf-30">
          <mxGeometry width="50" height="50" relative="1" as="geometry">
            <mxPoint x="390" y="360" as="sourcePoint" />
            <mxPoint x="540" y="340" as="targetPoint" />
          </mxGeometry>
        </mxCell>
        <mxCell id="4wwCNLiv_q5koLoVdjaf-33" value="" style="shape=ellipse;container=1;horizontal=1;horizontalStack=0;resizeParent=1;resizeParentMax=0;resizeLast=0;html=1;dashed=0;collapsible=0;labelBackgroundColor=none;fillColor=#FAE5C7;strokeColor=#0F8B8D;fontColor=#143642;" vertex="1" parent="1">
          <mxGeometry x="320" y="240" width="150" height="80" as="geometry" />
        </mxCell>
        <mxCell id="4wwCNLiv_q5koLoVdjaf-34" value="éditer les docs" style="html=1;strokeColor=none;fillColor=none;align=center;verticalAlign=middle;rotatable=0;whiteSpace=wrap;labelBackgroundColor=none;fontColor=#143642;" vertex="1" parent="4wwCNLiv_q5koLoVdjaf-33">
          <mxGeometry width="150" height="20" as="geometry" />
        </mxCell>
        <mxCell id="4wwCNLiv_q5koLoVdjaf-35" value="" style="line;strokeWidth=1;fillColor=none;rotatable=0;labelPosition=right;points=[];portConstraint=eastwest;dashed=0;resizeWidth=1;labelBackgroundColor=none;strokeColor=#0F8B8D;fontColor=#143642;" vertex="1" parent="4wwCNLiv_q5koLoVdjaf-33">
          <mxGeometry x="7.5" y="20" width="135" height="6.666666666666666" as="geometry" />
        </mxCell>
        <mxCell id="4wwCNLiv_q5koLoVdjaf-36" value="extension points" style="text;html=1;align=center;verticalAlign=middle;rotatable=0;fillColor=none;strokeColor=none;whiteSpace=wrap;labelBackgroundColor=none;fontColor=#143642;" vertex="1" parent="4wwCNLiv_q5koLoVdjaf-33">
          <mxGeometry y="30" width="150" height="20" as="geometry" />
        </mxCell>
        <mxCell id="4wwCNLiv_q5koLoVdjaf-37" value="&lt;div&gt;visualisation&lt;/div&gt;&lt;div&gt;notifis des absence&lt;/div&gt;" style="text;html=1;align=left;verticalAlign=middle;rotatable=0;spacingLeft=25;fillColor=none;strokeColor=none;whiteSpace=wrap;labelBackgroundColor=none;fontColor=#143642;" vertex="1" parent="4wwCNLiv_q5koLoVdjaf-33">
          <mxGeometry y="46.67" width="150" height="33.33" as="geometry" />
        </mxCell>
      </root>
    </mxGraphModel>
  </diagram>
</mxfile>
